<svg xmlns="http://www.w3.org/2000/svg" xmlns:xlink="http://www.w3.org/1999/xlink" width="30" height="37" viewBox="0 0 30 37"><defs><path id="asfha" d="M1391.67 5198.74c-.27-2.05.75-4.23 1.89-5.56a8.2 8.2 0 0 1 5.3-2.75 8.06 8.06 0 0 1-1.84 5.78c-1.22 1.43-3.11 2.54-5 2.54l-.35-.01zm-10.83 23.14c-3.06-4.48-5.45-12.61-2.25-18.15a8.79 8.79 0 0 1 7.4-4.5c2.34-.05 4.52 1.58 5.96 1.58 1.41 0 4.1-1.95 6.88-1.66 1.16.03 4.47.46 6.6 3.56-.17.1-3.94 2.32-3.9 6.87a7.9 7.9 0 0 0 4.83 7.27c-.03.13-.74 2.6-2.51 5.11-1.48 2.22-3.03 4.38-5.49 4.42-2.4.05-3.2-1.41-5.94-1.41-2.76 0-3.62 1.37-5.91 1.46h-.12c-2.29 0-4.04-2.4-5.55-4.55z"/></defs><g><g opacity=".6" transform="translate(-1377 -5190)"><use fill="#e1e1e1" xlink:href="#asfha"/></g></g></svg>