<svg id="Layer_1" data-name="Layer 1" xmlns="http://www.w3.org/2000/svg" xmlns:xlink="http://www.w3.org/1999/xlink" viewBox="0 0 202.5 60"><defs><style>.cls-1{fill:none;}.cls-2{opacity:0.3;isolation:isolate;}.cls-3{clip-path:url(#clip-path);}.cls-4,.cls-5{fill:#fff;}.cls-4{fill-opacity:0;stroke:#fff;stroke-miterlimit:50;stroke-width:4px;}</style><clipPath id="clip-path"><path class="cls-1" d="M195.3,60H7.1A7.127,7.127,0,0,1,0,52.9V7.1A7.127,7.127,0,0,1,7.1,0H195.3a7.28,7.28,0,0,1,7.2,7.1V52.9A7.28,7.28,0,0,1,195.3,60Z"/></clipPath></defs><title>appstore-btn</title><g id="avb5a"><path class="cls-2" d="M194.6,59.778H7.8A7.075,7.075,0,0,1,.75,52.73V7.27A7.075,7.075,0,0,1,7.8.222H194.6A7.226,7.226,0,0,1,201.75,7.27V52.73A7.226,7.226,0,0,1,194.6,59.778Z"/></g><path id="avb5a-2" d="M194.6,59.778H7.8A7.075,7.075,0,0,1,.75,52.73V7.27A7.075,7.075,0,0,1,7.8.222H194.6A7.226,7.226,0,0,1,201.75,7.27V52.73A7.226,7.226,0,0,1,194.6,59.778Z"/><g class="cls-3"><path id="avb5a-3" class="cls-4" d="M195.3,60H7.1A7.127,7.127,0,0,1,0,52.9V7.1A7.127,7.127,0,0,1,7.1,0H195.3a7.28,7.28,0,0,1,7.2,7.1V52.9A7.28,7.28,0,0,1,195.3,60Z"/></g><path id="avb5e" class="cls-5" d="M45.2,29.7a8.932,8.932,0,0,1,4.1-7.3,8.908,8.908,0,0,0-7-3.8c-3-.3-5.8,1.8-7.3,1.8s-3.8-1.7-6.3-1.7a9.31,9.31,0,0,0-7.9,4.8c-3.4,5.9-.9,14.5,2.4,19.3,1.6,2.3,3.5,4.9,6,4.8s3.4-1.5,6.3-1.5,3.8,1.5,6.3,1.5,4.3-2.3,5.8-4.7a18.238,18.238,0,0,0,2.7-5.4A8.539,8.539,0,0,1,45.2,29.7Z"/><path id="avb5f" class="cls-5" d="M40.4,15.5a8.984,8.984,0,0,0,2-6.1,8.53,8.53,0,0,0-5.6,2.9,7.894,7.894,0,0,0-2,5.9A7.538,7.538,0,0,0,40.4,15.5Z"/><path id="avb5g" class="cls-5" d="M74.6,38.9l-1.7-5.2c-.4-1.2-.7-2.5-1-3.8h-.1c-.2.8-.5,2.1-1,3.8l-1.7,5.2Zm5.9,8.4H77.1l-1.9-5.9H68.7l-1.8,5.9H63.6l6.4-20h4Z"/><path id="avb5h" class="cls-5" d="M93.7,40a5.513,5.513,0,0,0-1-3.5,3.131,3.131,0,0,0-2.8-1.4,3.227,3.227,0,0,0-2.1.8A3.6,3.6,0,0,0,86.5,38a3.553,3.553,0,0,0-.2,1v2.4a3.775,3.775,0,0,0,1,2.7,3.474,3.474,0,0,0,4.9.2,1,1,0,0,0,.4-.5A7.3,7.3,0,0,0,93.7,40Zm3.3-.1a8.232,8.232,0,0,1-2,5.8,5.966,5.966,0,0,1-4.4,1.9,4.5,4.5,0,0,1-4.1-2h0v7.6H83.3V37.7c0-1.5,0-3.1-.1-4.7H86l.2,2.3h.1a5.368,5.368,0,0,1,4.9-2.6,5.307,5.307,0,0,1,4.2,2A8.039,8.039,0,0,1,97,39.9Z"/><path id="avb5i" class="cls-5" d="M110.3,40a5.513,5.513,0,0,0-1-3.5,3.368,3.368,0,0,0-2.8-1.4,3.5,3.5,0,0,0-2.2.8A3.6,3.6,0,0,0,103,38a3.553,3.553,0,0,0-.2,1v2.4a3.775,3.775,0,0,0,1,2.7,3.25,3.25,0,0,0,2.5,1.1,3.368,3.368,0,0,0,2.8-1.4A6.364,6.364,0,0,0,110.3,40Zm3.2-.1a8.232,8.232,0,0,1-2,5.8,5.966,5.966,0,0,1-4.4,1.9,4.5,4.5,0,0,1-4.1-2h0v7.6H99.8V37.7c0-1.5,0-3.1-.1-4.7h2.8l.2,2.3h.1a5.368,5.368,0,0,1,4.9-2.6,5.307,5.307,0,0,1,4.2,2A7.509,7.509,0,0,1,113.5,39.9Z"/><path id="avb5j" class="cls-5" d="M132.1,41.7a4.937,4.937,0,0,1-1.8,4.1,7.545,7.545,0,0,1-5.4,1.8,9.5,9.5,0,0,1-5.2-1.2l.8-2.7a9.4,9.4,0,0,0,4.6,1.3,4.592,4.592,0,0,0,2.8-.8,2.345,2.345,0,0,0,1-2.2,2.973,2.973,0,0,0-.8-2,7.607,7.607,0,0,0-2.8-1.5c-3.5-1.3-5.2-3.2-5.2-5.7a5.179,5.179,0,0,1,1.8-4,7.239,7.239,0,0,1,4.9-1.6,8.747,8.747,0,0,1,4.5,1l-.8,2.6a8.489,8.489,0,0,0-3.8-.9,4.02,4.02,0,0,0-2.6.8,2.537,2.537,0,0,0-.1,3.6l.2.2a8.03,8.03,0,0,0,2.9,1.5,10.211,10.211,0,0,1,3.8,2.4,4.138,4.138,0,0,1,1.2,3.3Z"/><path id="avb5k" class="cls-5" d="M142.6,35.3h-3.5v7c0,1.8.6,2.7,1.9,2.7a3.178,3.178,0,0,0,1.4-.2l.1,2.4a10.679,10.679,0,0,1-2.5.3,3.852,3.852,0,0,1-3-1.2,5.953,5.953,0,0,1-1.1-3.9V35.2h-2.1V32.8h2.1V30.2l3.1-.9v3.6h3.5Z"/><path id="avb5l" class="cls-5" d="M155.2,40a6.65,6.65,0,0,0-.9-3.4,3.3,3.3,0,0,0-4.5-1.3,3.25,3.25,0,0,0-1.3,1.3,7.3,7.3,0,0,0-.9,3.5,6.65,6.65,0,0,0,.9,3.4,3.3,3.3,0,0,0,4.5,1.3,2.949,2.949,0,0,0,1.3-1.4A5.155,5.155,0,0,0,155.2,40Zm3.3-.1a7.871,7.871,0,0,1-1.9,5.5,6.614,6.614,0,0,1-5.3,2.2,6.372,6.372,0,0,1-5-2.1,8.031,8.031,0,0,1-1.9-5.3,7.871,7.871,0,0,1,1.9-5.5,6.651,6.651,0,0,1,5.2-2.1,6.58,6.58,0,0,1,5.1,2.1A7.151,7.151,0,0,1,158.5,39.9Z"/><path id="avb5m" class="cls-5" d="M168.9,35.7a3.4,3.4,0,0,0-1-.1,2.824,2.824,0,0,0-2.6,1.3,4.592,4.592,0,0,0-.8,2.8v7.6h-3.2V37.4c0-1.7,0-3.2-.1-4.5H164l.1,2.8h.1a4.606,4.606,0,0,1,1.6-2.3,4.006,4.006,0,0,1,2.3-.8h.8v3.1Z"/><path id="avb5n" class="cls-5" d="M180.2,38.5a5.421,5.421,0,0,0-.6-2.5,2.577,2.577,0,0,0-2.5-1.3,2.99,2.99,0,0,0-2.5,1.3,5.991,5.991,0,0,0-1,2.5Zm3,.9a7.568,7.568,0,0,1-.1,1.5h-9.6a4.374,4.374,0,0,0,1.4,3.3,4.452,4.452,0,0,0,3.1,1,10.361,10.361,0,0,0,3.9-.7l.5,2.2a13.186,13.186,0,0,1-4.8.9,6.717,6.717,0,0,1-7.2-6.2V40.3a8.022,8.022,0,0,1,1.8-5.4,6.11,6.11,0,0,1,5-2.3,5.438,5.438,0,0,1,4.7,2.3,7.2,7.2,0,0,1,1.3,4.5Z"/><path id="avb5o" class="cls-5" d="M71.9,15.1a3.114,3.114,0,0,0-.9-2.6,3.322,3.322,0,0,0-2.7-.9,5.7,5.7,0,0,0-1.3.1V19h1.1a3.743,3.743,0,0,0,2.8-1A3.833,3.833,0,0,0,71.9,15.1Zm1.7-.1A5,5,0,0,1,72,19a6.288,6.288,0,0,1-4.2,1.2,17.7,17.7,0,0,1-2.3-.1V10.4a24.519,24.519,0,0,1,2.7-.2,5.953,5.953,0,0,1,3.9,1.1A4.627,4.627,0,0,1,73.6,15Z"/><path id="avb5p" class="cls-5" d="M80.7,16.6a3.287,3.287,0,0,0-.4-1.7,1.6,1.6,0,0,0-1.4-.8,1.763,1.763,0,0,0-1.5.8,3.287,3.287,0,0,0-.4,1.7,3.287,3.287,0,0,0,.4,1.7,1.6,1.6,0,0,0,1.4.8,1.416,1.416,0,0,0,1.4-.9A1.845,1.845,0,0,0,80.7,16.6Zm1.7,0a4.388,4.388,0,0,1-.9,2.7,3.631,3.631,0,0,1-2.6,1.1,3.246,3.246,0,0,1-3.4-3.1v-.5a3.394,3.394,0,0,1,1-2.7,3.822,3.822,0,0,1,5.1,0A3.293,3.293,0,0,1,82.4,16.6Z"/><path id="avb5q" class="cls-5" d="M94.2,13.1,92,20.2H90.6l-.9-3.1c-.2-.8-.4-1.5-.6-2.3h0a8.648,8.648,0,0,1-.6,2.3l-1,3.1H86l-2.1-7.1h1.6l.8,3.4c.2.8.3,1.5.5,2.3h0c.2-.8.4-1.5.6-2.3l1-3.4h1.3l1,3.3c.2.8.4,1.6.6,2.3h0c.1-.7.3-1.5.5-2.3l.8-3.3Z"/><path id="avb5r" class="cls-5" d="M102.3,20.2h-1.6v-4c0-1.2-.5-1.9-1.4-1.9a1.606,1.606,0,0,0-1.1.5,1.746,1.746,0,0,0-.4,1.2v4.2H96.2v-5a13.4,13.4,0,0,0-.1-2h1.4l.1,1.1h0a3.043,3.043,0,0,1,.8-.8,2.3,2.3,0,0,1,1.4-.4,2.271,2.271,0,0,1,1.6.6,3.244,3.244,0,0,1,.8,2.3l.1,4.2Z"/><path id="avb5s" class="cls-5" d="M106.6,20.2H105V9.9h1.6Z"/><path id="avb5t" class="cls-5" d="M114.2,16.6a3.287,3.287,0,0,0-.4-1.7,1.6,1.6,0,0,0-1.4-.8,1.763,1.763,0,0,0-1.5.8,3.287,3.287,0,0,0-.4,1.7,3.287,3.287,0,0,0,.4,1.7,1.6,1.6,0,0,0,1.4.8,1.416,1.416,0,0,0,1.4-.9A1.845,1.845,0,0,0,114.2,16.6Zm1.7,0a4.388,4.388,0,0,1-.9,2.7,3.631,3.631,0,0,1-2.6,1.1,3.246,3.246,0,0,1-3.4-3.1v-.5a3.394,3.394,0,0,1,1-2.7,3.822,3.822,0,0,1,5.1,0A3.293,3.293,0,0,1,115.9,16.6Z"/><path id="avb5u" class="cls-5" d="M121.9,17.7V16.6c-1.7,0-2.6.5-2.6,1.4,0,.4.1.7.3.8a1.135,1.135,0,0,0,.8.3,1.689,1.689,0,0,0,1-.3A1.606,1.606,0,0,0,121.9,17.7Zm1.6,2.4h-1.4l-.1-.8h0a2.814,2.814,0,0,1-2.1,1,2.271,2.271,0,0,1-1.6-.6,1.553,1.553,0,0,1-.5-1.4,2.305,2.305,0,0,1,1.1-2,6.3,6.3,0,0,1,3-.7v-.1c0-.9-.5-1.4-1.5-1.4a3.743,3.743,0,0,0-1.8.5l-.3-1a5.025,5.025,0,0,1,2.4-.6,2.578,2.578,0,0,1,2.8,2.3v3.2A4.3,4.3,0,0,0,123.5,20.1Z"/><path id="avb5v" class="cls-5" d="M130.8,17.2V16a2.035,2.035,0,0,0-.6-1.5,1.284,1.284,0,0,0-1-.4,1.513,1.513,0,0,0-1.4.7,3.743,3.743,0,0,0-.5,1.8,3.371,3.371,0,0,0,.5,1.7,1.513,1.513,0,0,0,1.4.7,1.425,1.425,0,0,0,1.2-.6,1.922,1.922,0,0,0,.4-1.2Zm1.6,2.9H131V19h0a2.214,2.214,0,0,1-2.3,1.3,2.512,2.512,0,0,1-2.1-1,3.525,3.525,0,0,1-.8-2.6,4.1,4.1,0,0,1,.9-2.8,2.7,2.7,0,0,1,2.2-1,2.031,2.031,0,0,1,2,1h0V9.8h1.6v8.4a12.1,12.1,0,0,0-.1,1.9Z"/><path id="avb5w" class="cls-5" d="M144.2,16.6a3.287,3.287,0,0,0-.4-1.7,1.625,1.625,0,0,0-2.8,0,3.287,3.287,0,0,0-.4,1.7,3.287,3.287,0,0,0,.4,1.7,1.6,1.6,0,0,0,1.4.8,1.416,1.416,0,0,0,1.4-.9A2.276,2.276,0,0,0,144.2,16.6Zm1.7,0a4.388,4.388,0,0,1-.9,2.7,3.631,3.631,0,0,1-2.6,1.1,3.246,3.246,0,0,1-3.4-3.1v-.5a3.394,3.394,0,0,1,1-2.7,3.822,3.822,0,0,1,5.1,0,3.293,3.293,0,0,1,.8,2.5Z"/><path id="avb5x" class="cls-5" d="M154.3,20.2h-1.6v-4c0-1.2-.5-1.9-1.4-1.9a1.606,1.606,0,0,0-1.1.5,1.746,1.746,0,0,0-.4,1.2v4.2h-1.6v-7h1.4l.1,1.1h0a3.043,3.043,0,0,1,.8-.8,2.3,2.3,0,0,1,1.4-.4,2.271,2.271,0,0,1,1.6.6,3.244,3.244,0,0,1,.8,2.3Z"/><path id="avb5y" class="cls-5" d="M164.9,14.3h-1.7v3.4c0,.9.3,1.3.9,1.3a1.7,1.7,0,0,0,.7-.1v1.2a5.019,5.019,0,0,1-1.2.2,2.035,2.035,0,0,1-1.5-.6,2.506,2.506,0,0,1-.5-1.9V14.2h-1V13h1V11.7l1.5-.5V13h1.7Z"/><path id="avb5z" class="cls-5" d="M173.2,20.2h-1.6v-4c0-1.3-.5-1.9-1.4-1.9a1.5,1.5,0,0,0-1.5,1.1c0,.2-.1.3-.1.6v4.2H167V9.9h1.6v4.3h0a2.245,2.245,0,0,1,2.1-1.2,2.271,2.271,0,0,1,1.6.6,3.069,3.069,0,0,1,.8,2.4l.1,4.2Z"/><path id="avb5A-4" class="cls-5" d="M180.3,15.9a2.663,2.663,0,0,0-.3-1.2,1.525,1.525,0,0,0-1.2-.7,1.612,1.612,0,0,0-1.3.6,3.08,3.08,0,0,0-.5,1.2h3.3Zm1.5.4a1.7,1.7,0,0,1-.1.7H177a1.99,1.99,0,0,0,.7,1.6,2.7,2.7,0,0,0,1.5.5,6.279,6.279,0,0,0,1.9-.3l.2,1.1a6.723,6.723,0,0,1-2.4.4,3.188,3.188,0,0,1-2.6-1,3.114,3.114,0,0,1-.9-2.6,4.388,4.388,0,0,1,.9-2.7,2.951,2.951,0,0,1,2.5-1.1,2.845,2.845,0,0,1,2.3,1.1,3.891,3.891,0,0,1,.7,2.3Z"/></svg>