<svg xmlns="http://www.w3.org/2000/svg" xmlns:xlink="http://www.w3.org/1999/xlink" width="125" height="130" viewBox="0 0 125 130"><defs><path id="azvxa" d="M435.14 5035.38l-50.4 56.84c-.32.35.15.82.5.53l26.24-20.96c.13-.06.22-.12.41-.15l36.92-.41c.19 0 .28.22.15.38l-31.22 31.16a.24.24 0 0 1-.16.06l-40.35-.03c-.1 0-.16-.06-.2-.16l-11.1-34.6c-.03-.06 0-.16.06-.22l30.91-32.76c.04-.03.1-.06.16-.06l37.92.03c.16 0 .28.22.16.35z"/><path id="azvxb" d="M435.14 5035.38l-50.4 56.84c-.32.35.15.82.5.53l26.24-20.96c.13-.06.22-.12.41-.15l36.92-.41c.19 0 .28.22.15.38l-31.22 31.16a.24.24 0 0 1-.16.06l-40.35-.03c-.1 0-.16-.06-.2-.16l-11.1-34.6c-.03-.06 0-.16.06-.22l30.91-32.76c.04-.03.1-.06.16-.06l37.92.03c.16 0 .28.22.16.35z"/><path id="azvxc" d="M425.66 5100.26h.37l.85 1.29.84-1.29h.35v2.35h-.35v-1.81l-.84 1.28h-.03l-.85-1.28v1.81h-.34zm-1.63.32h-.75v-.32h1.84v.32h-.75v2.03h-.34z"/><path id="azvxd" d="M345 5132.58v-.06c0-6.5 4.85-11.89 11.64-11.89 4.16 0 6.66 1.47 8.98 3.66l-1.79 1.91c-1.94-1.85-4.1-3.16-7.22-3.16-5.1 0-8.92 4.13-8.92 9.42v.06c0 5.32 3.85 9.48 8.92 9.48 3.16 0 5.22-1.22 7.41-3.32l1.72 1.7c-2.4 2.43-5.03 4.03-9.2 4.03-6.66 0-11.54-5.23-11.54-11.83z"/><path id="azvxe" d="M380.1 5121h16.62v2.38H382.7v7.86h12.55v2.37H382.7v8.05h14.2v2.37h-16.8z"/><path id="azvxf" d="M411.98 5121h16.62v2.38h-14.02v7.86h12.55v2.37h-12.55v8.05h14.2v2.37h-16.8v-23.02z"/><path id="azvxg" d="M443.83 5121h2.6v13.74l13.2-13.73h3.35l-9.85 10.04 10.29 12.95h-3.25l-8.83-11.14-4.88 4.98v6.16h-2.6v-23z"/><path id="azvxh" d="M466.83 5123.45v-.91h.75c.38 0 .6.16.6.44 0 .31-.26.47-.63.47zm-.4 1.31h.37v-.97h.66l.75.97h.47l-.79-1.03c.38-.1.66-.35.66-.75 0-.22-.1-.38-.22-.5-.16-.2-.44-.28-.75-.28h-1.16zm1 1.06a2.26 2.26 0 0 1-2.29-2.28c0-1.25.97-2.28 2.28-2.28 1.32 0 2.29 1 2.29 2.28 0 1.25-1 2.32-2.29 2.28zm0 .22c1.4 0 2.5-1.12 2.5-2.5s-1.1-2.5-2.5-2.5c-1.41 0-2.5 1.16-2.5 2.53 0 1.35 1.09 2.47 2.5 2.47z"/><path id="azvxi" d="M365.27 5159.52l-2.1-4.7-2.09 4.7zm-2.56-5.91h.97l4.19 9.26h-1.13l-1.06-2.44h-5l-1.1 2.44h-1.06z"/><path id="azvxj" d="M372.84 5153.67h.97l5.8 7.38v-7.38h1v9.2h-.82l-5.94-7.54v7.54h-1z"/><path id="azvxk" d="M387.64 5159.08c-.12-1.22-.81-2.28-2.16-2.28-1.15 0-2.06.97-2.22 2.28zm-2 3.07c.94 0 1.6-.38 2.13-.97l.62.56a3.53 3.53 0 0 1-2.78 1.28c-1.88 0-3.38-1.44-3.38-3.53 0-1.97 1.38-3.54 3.25-3.54 2 0 3.16 1.6 3.16 3.6v.35h-5.38a2.34 2.34 0 0 0 2.38 2.25z"/><path id="azvxl" d="M389.46 5156.08h1.06l1.79 5.44 1.81-5.47h.84l1.85 5.47 1.78-5.44h1.07l-2.38 6.85h-.88l-1.81-5.35-1.85 5.35h-.9z"/><path id="azvxm" d="M408.54 5158.36c1.38 0 2.38-.72 2.38-1.87v-.04c0-1.12-.88-1.81-2.35-1.81h-2.84v3.72zm-3.88-4.69h3.95c1.12 0 2.03.34 2.62.9.44.44.72 1.1.72 1.82v.03c0 1.54-1.06 2.41-2.5 2.7l2.82 3.75H411l-2.65-3.57h-2.64v3.57h-1.03v-9.2z"/><path id="azvxn" d="M418.59 5159.08c-.13-1.22-.82-2.28-2.16-2.28-1.16 0-2.07.97-2.22 2.28zm-1.98 3.07c.94 0 1.6-.38 2.13-.97l.63.56a3.53 3.53 0 0 1-2.79 1.28c-1.87 0-3.38-1.44-3.38-3.53 0-1.97 1.38-3.54 3.26-3.54 2 0 3.16 1.6 3.16 3.6v.35h-5.38a2.34 2.34 0 0 0 2.37 2.25z"/><path id="azvxo" d="M425.47 5160.4v-.63a6.6 6.6 0 0 0-1.97-.28c-1.25 0-1.97.56-1.97 1.38v.03c0 .84.78 1.34 1.72 1.34 1.22-.03 2.22-.78 2.22-1.84zm-4.98.5c0-1.47 1.2-2.26 2.91-2.26.88 0 1.47.13 2.07.29v-.22c0-1.22-.75-1.85-2-1.85-.82 0-1.44.19-2.07.5l-.31-.81a5.54 5.54 0 0 1 2.47-.57c.97 0 1.72.26 2.19.76.47.46.72 1.12.72 2v4.16h-1v-1a3 3 0 0 1-2.44 1.16c-1.28-.04-2.54-.76-2.54-2.16z"/><path id="azvxp" d="M428.32 5153.3h1v9.6h-1z"/><path id="azvxq" d="M431.35 5156.08h1v6.79h-1zm-.06-2.6h1.16v1.13h-1.16z"/><path id="azvxr" d="M434.7 5161.08v-4.1h-.94v-.9h.94V5154h1v2.07h2.16v.9h-2.16v3.98c0 .81.47 1.13 1.16 1.13.34 0 .62-.07 1-.25v.87c-.35.19-.75.28-1.22.28-1.13 0-1.94-.53-1.94-1.9z"/><path id="azvxs" d="M438.86 5164.68l.34-.81c.32.16.63.25 1.07.25.6 0 1-.31 1.4-1.28l-3.1-6.76h1.13l2.48 5.66 2.19-5.66h1.06l-2.85 7c-.56 1.41-1.22 1.92-2.25 1.92-.6.03-1-.1-1.47-.32z"/><path id="azvxt" d="M448.06 5153.14h.37l.85 1.28.84-1.28h.35v2.34h-.35v-1.81l-.84 1.28h-.03l-.85-1.28v1.81h-.34zm-1.6.31h-.75v-.31h1.85v.31h-.75v2.03h-.35z"/></defs><g><g transform="translate(-345 -5035)"><g><use fill="#2e37fe" xlink:href="#azvxa"/></g><g><g><use fill="#2e37fe" xlink:href="#azvxb"/></g></g><g><g><use fill="#2e37fe" xlink:href="#azvxc"/></g></g><g><g><use fill="#2e37fe" xlink:href="#azvxd"/></g><g><use fill="#2e37fe" xlink:href="#azvxe"/></g><g><use fill="#2e37fe" xlink:href="#azvxf"/></g><g><use fill="#2e37fe" xlink:href="#azvxg"/></g><g><use fill="#2e37fe" xlink:href="#azvxh"/></g></g><g><g><use fill="#999" xlink:href="#azvxi"/></g><g><use fill="#999" xlink:href="#azvxj"/></g><g><use fill="#999" xlink:href="#azvxk"/></g><g><use fill="#999" xlink:href="#azvxl"/></g><g><use fill="#999" xlink:href="#azvxm"/></g><g><use fill="#999" xlink:href="#azvxn"/></g><g><use fill="#999" xlink:href="#azvxo"/></g><g><use fill="#999" xlink:href="#azvxp"/></g><g><use fill="#999" xlink:href="#azvxq"/></g><g><use fill="#999" xlink:href="#azvxr"/></g><g><use fill="#999" xlink:href="#azvxs"/></g><g><use fill="#999" xlink:href="#azvxt"/></g></g></g></g></svg>