<svg xmlns="http://www.w3.org/2000/svg" xmlns:xlink="http://www.w3.org/1999/xlink" width="83" height="72" viewBox="0 0 83 72"><defs><path id="udmqa" d="M102 58.5v-1.35h-.49v-.2h1.22v.2h-.5v1.34zm2.44 0v-1.2l-.56.84h-.02l-.55-.84v1.2h-.23v-1.55h.25l.55.84.56-.84h.22v1.54zm-33.23.12c-.07 0-.1-.04-.13-.1l-7.3-22.78-.01-.03c0-.04.01-.08.05-.11l20.34-21.56a.16.16 0 0 1 .1-.04l24.95.02c.08 0 .14.07.14.15 0 .02 0 .05-.03.08l-33.17 37.4a.24.24 0 0 0-.07.17c0 .18.22.33.4.19l17.27-13.8c.08-.04.15-.08.27-.1l24.3-.27c.08 0 .14.07.13.15 0 .03 0 .07-.03.1l-20.55 20.5a.16.16 0 0 1-.1.05zm58.96 13.59h.48c.24 0 .4-.1.4-.31 0-.19-.13-.3-.38-.3h-.5zm.91.86l-.5-.64h-.43v.64h-.24v-1.69h.76c.2 0 .39.06.5.19.07.08.14.18.14.33 0 .26-.19.43-.44.5l.52.67zm-2.02-.8c0 .82.64 1.5 1.5 1.5.85.02 1.5-.68 1.5-1.5 0-.85-.63-1.5-1.5-1.5-.86 0-1.5.67-1.5 1.5zm-.14.02c0-.9.72-1.67 1.65-1.67.92 0 1.64.74 1.64 1.65 0 .9-.72 1.64-1.64 1.64-.93 0-1.65-.74-1.65-1.62zm-3.13 13.44l-5.8-7.33-3.22 3.28v4.05h-1.7V70.6h1.68v9.04l8.69-9.04h2.2l-6.48 6.6 6.77 8.53zm-52.69.02V70.6h10.93v1.56h-9.22v5.17h8.26v1.57H74.8v5.29h9.35v1.56zm20.98 0V70.6h10.93v1.56H95.8v5.17h8.26v1.57h-8.26v5.29h9.35v1.56zM50 78.22v-.04c0-4.29 3.2-7.83 7.66-7.83 2.74 0 4.38.97 5.9 2.41l-1.17 1.26a6.56 6.56 0 0 0-4.75-2.08c-3.36 0-5.87 2.72-5.87 6.2v.04c0 3.5 2.53 6.23 5.87 6.23 2.08 0 3.44-.8 4.88-2.18l1.13 1.11C62.07 84.95 60.34 86 57.6 86c-4.39 0-7.6-3.44-7.6-7.78z"/></defs><g><g transform="translate(-50 -14)"><use fill="#fff" xlink:href="#udmqa"/></g></g></svg>