<?xml version="1.0" encoding="utf-8"?>
<!-- Generator: Adobe Illustrator 21.1.0, SVG Export Plug-In . SVG Version: 6.00 Build 0)  -->
<svg version="1.1" id="Layer_1" xmlns="http://www.w3.org/2000/svg" xmlns:xlink="http://www.w3.org/1999/xlink" x="0px" y="0px"
	 width="202.5px" height="60px" viewBox="0 0 202.5 60" style="enable-background:new 0 0 202.5 60;" xml:space="preserve">
<style type="text/css">
	.st0{opacity:0.3;enable-background:new    ;}
	.st1{clip-path:url(#SVGID_2_);}
	.st2{fill:#FFFFFF;fill-opacity:0;stroke:#FFFFFF;stroke-width:4;stroke-miterlimit:50;}
	.st3{fill:#FFFFFF;}
	.st4{fill:#FFFFFF;fill-opacity:0;stroke:#FFFFFF;stroke-width:0.2;stroke-miterlimit:50;}
	.st5{fill:url(#n5mbm_1_);}
	.st6{fill:url(#n5mbo_1_);}
	.st7{fill:url(#n5mbq_1_);}
	.st8{fill:url(#n5mbs_1_);}
	.st9{opacity:0.2;}
	.st10{opacity:0.12;}
	.st11{opacity:0.25;}
</style>
<g id="n5mba">
	<path class="st0" d="M193.38,59.481H9.12c-4.029,0-7.37-3.341-7.37-7.37V7.889c0-4.029,3.341-7.37,7.37-7.37H193.38
		c4.029,0,7.37,3.341,7.37,7.37v44.222c0,4.029-3.243,7.37-7.272,7.37H193.38z"/>
</g>
<path id="n5mba-2" d="M193.38,59.481H9.12c-4.029,0-7.37-3.341-7.37-7.37V7.889c0-4.029,3.341-7.37,7.37-7.37H193.38
	c4.029,0,7.37,3.341,7.37,7.37v44.222c0,4.029-3.243,7.37-7.272,7.37H193.38z"/>
<g>
	<defs>
		<path id="SVGID_1_" d="M195,60H7.5C3.4,60,0,56.6,0,52.5v-45C0,3.4,3.4,0,7.5,0H195c4.1,0,7.5,3.4,7.5,7.5v45
			c0,4.1-3.3,7.5-7.4,7.5H195z"/>
	</defs>
	<clipPath id="SVGID_2_">
		<use xlink:href="#SVGID_1_"  style="overflow:visible;"/>
	</clipPath>
	<g class="st1">
		<path id="n5mba-3" class="st2" d="M195,60H7.5C3.4,60,0,56.6,0,52.5v-45C0,3.4,3.4,0,7.5,0H195c4.1,0,7.5,3.4,7.5,7.5v45
			c0,4.1-3.3,7.5-7.4,7.5H195z"/>
	</g>
</g>
<path id="n5mbe" class="st3" d="M71.1,15.3c0.1,1.1-0.3,2.2-1,3c-0.9,0.9-2.1,1.3-3.3,1.3c-2.5,0-4.6-2-4.7-4.5V15
	c0-1.2,0.5-2.4,1.4-3.3c1.3-1.4,3.4-1.7,5.1-0.9c0.5,0.2,1,0.6,1.4,1l-0.8,0.8c-0.6-0.7-1.5-1.1-2.4-1c-0.9,0-1.8,0.3-2.4,1
	c-0.7,0.6-1.1,1.6-1,2.5c-0.1,0.9,0.3,1.9,1,2.5c0.7,0.6,1.5,0.9,2.4,1c0.9,0,1.8-0.3,2.5-1c0.5-0.5,0.8-1.1,0.8-1.8h-3.3v-1.2h4.4
	C71.2,14.6,71.1,15.3,71.1,15.3z"/>
<path id="n5mbe-2" class="st4" d="M71.1,15.3c0.1,1.1-0.3,2.2-1,3c-0.9,0.9-2.1,1.3-3.3,1.3c-2.5,0-4.6-2-4.7-4.5V15
	c0-1.2,0.5-2.4,1.4-3.3c1.3-1.4,3.4-1.7,5.1-0.9c0.5,0.2,1,0.6,1.4,1l-0.8,0.8c-0.6-0.7-1.5-1.1-2.4-1c-0.9,0-1.8,0.3-2.4,1
	c-0.7,0.6-1.1,1.6-1,2.5c-0.1,0.9,0.3,1.9,1,2.5c0.7,0.6,1.5,0.9,2.4,1c0.9,0,1.8-0.3,2.5-1c0.5-0.5,0.8-1.1,0.8-1.8h-3.3v-1.2h4.4
	C71.2,14.6,71.1,15.3,71.1,15.3z"/>
<path id="n5mbf" class="st3" d="M78,11.5h-4v2.8h3.8v1H74v2.8h4v1.2h-5.2v-9H78V11.5z"/>
<path id="n5mbf-2" class="st4" d="M78,11.5h-4v2.8h3.8v1H74v2.8h4v1.2h-5.2v-9H78V11.5z"/>
<path id="n5mbg" class="st3" d="M83,19.5h-1.2v-8h-2.5v-1h6.3v1H83V19.5z"/>
<path id="n5mbg-2" class="st4" d="M83,19.5h-1.2v-8h-2.5v-1h6.3v1H83V19.5z"/>
<path id="n5mbh" class="st3" d="M89.9,19.5v-9h1.2v9H89.9z"/>
<path id="n5mbh-2" class="st4" d="M89.9,19.5v-9h1.2v9H89.9z"/>
<path id="n5mbi" class="st3" d="M96.1,19.5h-1.2v-8h-2.5v-1h6.1v1H96L96.1,19.5L96.1,19.5z"/>
<path id="n5mbi-2" class="st4" d="M96.1,19.5h-1.2v-8h-2.5v-1h6.1v1H96L96.1,19.5L96.1,19.5z"/>
<path id="n5mbj" class="st3" d="M104.7,17.5c0.6,0.6,1.5,1,2.4,1s1.8-0.3,2.4-1s1-1.6,1-2.5c0.1-0.9-0.3-1.9-1-2.5
	c-0.6-0.6-1.5-1-2.4-1s-1.8,0.3-2.4,1s-1,1.6-1,2.5C103.6,15.9,104,16.9,104.7,17.5z M110.4,18.3c-0.9,0.9-2.1,1.3-3.3,1.3
	c-2.5,0-4.6-2-4.7-4.5V15c0-1.2,0.5-2.4,1.4-3.3c0.9-0.9,2.1-1.3,3.3-1.3c1.2,0,2.4,0.5,3.3,1.3c1.8,1.8,1.9,4.7,0.1,6.5
	C110.5,18.2,110.4,18.3,110.4,18.3z"/>
<path id="n5mbj-2" class="st4" d="M104.7,17.5c0.6,0.6,1.5,1,2.4,1s1.8-0.3,2.4-1s1-1.6,1-2.5c0.1-0.9-0.3-1.9-1-2.5
	c-0.6-0.6-1.5-1-2.4-1s-1.8,0.3-2.4,1s-1,1.6-1,2.5C103.6,15.9,104,16.9,104.7,17.5z M110.4,18.3c-0.9,0.9-2.1,1.3-3.3,1.3
	c-2.5,0-4.6-2-4.7-4.5V15c0-1.2,0.5-2.4,1.4-3.3c0.9-0.9,2.1-1.3,3.3-1.3c1.2,0,2.4,0.5,3.3,1.3c1.8,1.8,1.9,4.7,0.1,6.5
	C110.5,18.2,110.4,18.3,110.4,18.3z"/>
<path id="n5mbk" class="st3" d="M113.4,19.5v-9h1.4l4.4,7v-7h1.2v9h-1.2l-4.6-7.3v7.3H113.4z"/>
<path id="n5mbk-2" class="st4" d="M113.4,19.5v-9h1.4l4.4,7v-7h1.2v9h-1.2l-4.6-7.3v7.3H113.4z"/>
<path id="n5mbl" class="st3" d="M160.4,26.2h2.9V45h-2.9V26.2z M188.6,33L181,50.7h-2.9l2.9-6.3L176,33h3l3.3,8.1h0.1l3.1-8.1H188.6
	z M173.1,39.9c-0.8-0.4-1.6-0.6-2.5-0.6c-1.4,0-3,0.5-3,2c0,1.2,1.4,1.7,2.2,1.7C171.5,42.8,172.8,41.6,173.1,39.9z M170.1,32.6
	c3.1-0.2,5.7,2.1,6,5.2V45h-2.7v-1.5h-0.1c-0.8,1.2-2.2,1.8-3.6,1.8c-2.4,0.1-4.5-1.7-4.6-4.2l0,0c0-2.7,2.7-4.2,5.4-4.2
	c1,0,2,0.3,2.9,0.8v-0.2c-0.2-1.5-1.5-2.5-3-2.4c-1-0.1-2,0.4-2.5,1.3l-2.5-1C165.9,33.4,168,32.5,170.1,32.6L170.1,32.6z M156.1,32
	c-0.1-1.8-1.5-3.2-3.3-3.2h-4v6.5h4C154.6,35.2,156,33.8,156.1,32z M158.9,32.1c0,3.2-2.7,5.8-5.9,5.8c-0.1,0-0.1,0-0.2,0h-3.9v7
	H146V26.1h6.8C156.1,26.1,158.8,28.8,158.9,32.1z M119.6,39c0.1-2-1.4-3.8-3.4-3.9h-0.1c-2.2,0.2-3.8,2-3.6,4.2
	c0.1,1.9,1.7,3.5,3.6,3.6c2,0,3.6-1.7,3.5-3.7C119.6,39.2,119.6,39.1,119.6,39z M119.4,33h2.7v11.4c0,4.7-2.7,6.6-6,6.6
	c-2.5,0-4.7-1.5-5.7-3.8l2.4-1c0.5,1.3,1.7,2.2,3.1,2.2c2.1,0,3.5-1.3,3.5-3.8v-0.9h-0.1c-0.8,1-2,1.5-3.3,1.5
	c-3.4,0-6.1-2.8-6.1-6.2c0,0,0,0,0-0.1c0-3.4,2.7-6.3,6.1-6.5c1.3,0.1,2.6,0.6,3.5,1.5L119.4,33z M123.9,26.3h2.9V45h-2.9V26.3z
	 M136.7,36.5c-0.5-0.9-1.4-1.4-2.4-1.3c-2,0.2-3.4,1.8-3.3,3.8L136.7,36.5z M140,37.5l-8.5,3.6c0.5,1.2,1.8,2,3.1,2s2.5-0.7,3.1-1.8
	l2.1,1.5c-1.1,1.8-3.1,2.9-5.2,2.8c-3.5,0-6.3-2.8-6.3-6.2c0-0.1,0-0.2,0-0.3c0-3.9,2.7-6.5,6-6.5c2.5,0,4.6,1.7,5.4,4L140,37.5z
	 M80.9,34.7c0.1,0.6,0.1,1.1,0.1,1.7c0,2.3-0.8,4.6-2.4,6.3c-1.7,2-4.3,3-6.9,2.8c-5.5,0-9.9-4.4-9.9-9.9s4.4-9.9,9.9-9.9l0,0
	c2.5,0,5,1,6.8,2.7l-2,2c-1.4-1.2-3.2-1.9-5-2c-3.9,0-7.1,3.2-7.1,7.1v0.1c-0.1,3.9,2.9,7.1,6.8,7.2c0.1,0,0.1,0,0.2,0
	c1.9,0.1,3.7-0.6,5-2c0.9-1,1.4-2.2,1.5-3.5h-6.5v-2.7L80.9,34.7z M91.8,39c0.2-2-1.3-3.7-3.3-3.9c-0.1,0-0.2,0-0.3,0
	c-2.2-0.2-4,1.4-4.2,3.6c-0.2,2.2,1.4,4,3.6,4.2s4-1.4,4.2-3.6C91.8,39.2,91.8,39.1,91.8,39z M94.6,39.2c0.1,3.5-2.7,6.4-6.2,6.5
	h-0.3c-3.5,0-6.4-2.8-6.5-6.3v-0.1c-0.1-3.5,2.7-6.4,6.2-6.5h0.3c3.3-0.2,6.2,2.3,6.5,5.6C94.6,38.7,94.6,38.9,94.6,39.2z M105.8,39
	c0.2-2-1.3-3.7-3.3-3.9c-0.1,0-0.2,0-0.3,0c-2.2-0.2-4,1.4-4.2,3.6c-0.2,2.2,1.4,4,3.6,4.2s4-1.4,4.2-3.6
	C105.8,39.2,105.8,39.1,105.8,39z M108.6,39.2c0.1,3.5-2.7,6.4-6.2,6.5h-0.3c-3.5,0-6.4-2.8-6.5-6.3v-0.1c-0.1-3.5,2.7-6.4,6.2-6.5
	h0.3c3.3-0.2,6.2,2.3,6.5,5.6C108.6,38.7,108.6,38.9,108.6,39.2z"/>
<linearGradient id="n5mbm_1_" gradientUnits="userSpaceOnUse" x1="635.24" y1="1099.39" x2="610.07" y2="1074.22" gradientTransform="matrix(1 0 0 1 -496 -946)">
	<stop  offset="0" style="stop-color:#00A0FF"/>
	<stop  offset="0.01" style="stop-color:#00A1FF"/>
	<stop  offset="0.26" style="stop-color:#00BEFF"/>
	<stop  offset="0.51" style="stop-color:#00D2FF"/>
	<stop  offset="0.76" style="stop-color:#00DFFF"/>
	<stop  offset="1" style="stop-color:#00E3FF"/>
</linearGradient>
<path id="n5mbm" class="st5" d="M15.6,11.2c-0.5,0.6-0.7,1.3-0.6,2.1v33.2c0,0.8,0.2,1.5,0.8,2.1l0.1,0.2l18.6-18.6v-0.3L15.6,11.2z
	"/>
<linearGradient id="n5mbo_1_" gradientUnits="userSpaceOnUse" x1="546.76" y1="976.05" x2="510.45" y2="976.05" gradientTransform="matrix(1 0 0 1 -496 -946)">
	<stop  offset="0" style="stop-color:#FFE000"/>
	<stop  offset="0.41" style="stop-color:#FFBD00"/>
	<stop  offset="0.78" style="stop-color:#FFA500"/>
	<stop  offset="1" style="stop-color:#FF9C00"/>
</linearGradient>
<path id="n5mbo" class="st6" d="M40.5,36.5l-6.1-6.2v-0.5l6.1-6.2l0.1,0.2L48,28c2.1,1.2,2.1,3.2,0,4.3L40.5,36.5z"/>
<linearGradient id="n5mbq_1_" gradientUnits="userSpaceOnUse" x1="627.14" y1="1091.64" x2="593" y2="1057.5" gradientTransform="matrix(1 0 0 1 -496 -946)">
	<stop  offset="0" style="stop-color:#FF3A44"/>
	<stop  offset="1" style="stop-color:#C31162"/>
</linearGradient>
<path id="n5mbq" class="st7" d="M40.6,36.3L34.3,30L15.5,48.8c0.8,0.8,1.8,0.8,3.1,0.2L40.6,36.3"/>
<linearGradient id="n5mbs_1_" gradientUnits="userSpaceOnUse" x1="387.9771" y1="1099.807" x2="403.217" y2="1084.557" gradientTransform="matrix(1 0 0 1 -496 -946)">
	<stop  offset="0" style="stop-color:#32A071"/>
	<stop  offset="0.07" style="stop-color:#2DA771"/>
	<stop  offset="0.48" style="stop-color:#15CF74"/>
	<stop  offset="0.8" style="stop-color:#06E775"/>
	<stop  offset="1" style="stop-color:#00F076"/>
</linearGradient>
<path id="n5mbs" class="st8" d="M40.6,23.7L18.7,11.2c-1.4-0.8-2.4-0.6-3.1,0.2L34.4,30L40.6,23.7z"/>
<g class="st9">
	<path id="n5mbu" d="M40.5,36.2L18.7,48.5c-0.9,0.7-2.1,0.7-3,0l-0.1,0.2l0.1,0.2c0.9,0.7,2.1,0.7,3,0L40.5,36.2z"/>
</g>
<g class="st10">
	<path id="n5mbv" d="M15.6,48.5c-0.5-0.6-0.7-1.3-0.6-2.1v0.2c0,0.8,0.2,1.5,0.8,2.1v-0.2H15.6z"/>
</g>
<g class="st10">
	<path id="n5mbw" d="M48,32l-7.5,4.2l0.1,0.2l7.4-4.2c0.8-0.4,1.4-1.2,1.5-2.1C49.5,30.8,48.9,31.4,48,32z"/>
</g>
<g class="st11">
	<path id="n5mbx" class="st3" d="M18.8,11.4L48,28c0.9,0.6,1.5,1.2,1.5,2c-0.1-0.9-0.7-1.7-1.5-2.1L18.8,11.2
		C16.7,10,15,10.9,15,13.3v0.2C15,11.2,16.6,10.2,18.8,11.4z"/>
</g>
</svg>
