<svg xmlns="http://www.w3.org/2000/svg" xmlns:xlink="http://www.w3.org/1999/xlink" width="70" height="36" viewBox="0 0 70 36"><defs><path id="kx04a" d="M1533.62 5194.24c-.58-.2-1.2-.4-1.85-.6l-.92.55c19.9 5.73 14.34 29.12.35 30.66-7.68.87-14.95-5.68-15.15-13.46-3.74-2.51-8.24-3.43-12.53-4.2 3.74-.76 9.2-.3 12.83.97l1.01-2.97c-6.67-1.73-16.87-1.17-22.83 2.52l1.31-4.2c-6.51 2.15-13.48 7.01-18.43 12.8 3.08-7.84 11.06-16.28 18.74-19.6l-.4 1.83a55.16 55.16 0 0 1 15.5-4.8c5.76-.93 10.6-1.03 14.65-.52l-1.03-1.11-.8-.07a59.33 59.33 0 0 0-27.12 5.02l.36-1.8c-10.16 4.1-18.54 13.42-21.82 24.01 5.35-5.68 10.65-11.16 19.04-14.38l-1.52 4.76c6.52-4.45 15.71-5.53 23.24-3.84l-.4 1.28c-4.76-1.49-9.9-1.23-15 .1 5.2 1.28 9.59 2.2 14.13 4.6.5 8.04 7.73 15.05 16.06 14.13 16.52-1.79 19.6-26.25 2.58-31.68z"/><path id="kx04b" d="M1540.14 5214.87c.3-.92.56-1.84.7-2.87-.2.06-.45.1-.65.2.05.83 0 1.65-.1 2.47zm1.67-3.64c-.16 2.67-.81 4.5-2.12 6.7-.1-1.93-.4-3.88-1.02-5.77 1.01-.46 2.07-.72 3.14-.93zm-22.33 2.67s7.02-.46 12.53-4a36.6 36.6 0 0 1-8.44 1.54l5.2-2.15c-3.33.2-5.96.41-9.34-.82a7.44 7.44 0 0 0 .05 5.43zm16.47-5.27a34.22 34.22 0 0 1-17.38 6.44 12.6 12.6 0 0 1 .05-8.39c5.2 1.33 10.3 2.71 14.9-.97.86.92 1.72 1.9 2.43 2.92zm-2.43 5.32c-2.42 2.2-4.24 3.99-8.18 5.12 3.48-2.3 5.76-3.8 7.78-6.35-3.69 2.71-8.64 4.2-12.17 4.66 4.09 5.32 8.68 4.3 8.68 4.3 1.32-2.71 2.07-5.22 3.9-7.73zm4-2.25c-3.95 2.5-5.36 7.11-6.57 11.36-5.15.46-9.7-2.3-11.97-6.96a34.83 34.83 0 0 0 17.47-6.55c.4.7.75 1.41 1.06 2.15zm-.51 7.57c.25-.82.25-2.46.05-4.45l-1.21 2.56.25-2.4a15.47 15.47 0 0 0-2.78 6.75c2.17-1.02 3.23-2.05 3.69-2.46zm-5 3.63c1.1-3.83 2.27-8.03 5.85-10.18.66 2.15.96 4.45.6 6.7a12.19 12.19 0 0 1-6.45 3.48zm5.6-20.47c-.2.36-.45.67-.66 1.03.5.66 1.01 1.38 1.42 2.14.3-.3.6-.66.9-1.02a9.5 9.5 0 0 0-1.66-2.15zm-.96 5.63zm0 0c-.7-1.02-1.56-2.1-2.37-2.97a11.97 11.97 0 0 0 2.63-3.89c.9.67 2.27 2.05 3.08 3.28a18.62 18.62 0 0 1-3.34 3.58zm3.84-1.17c-.35.4-.7.76-1.06 1.12.2.55.35 1.11.45 1.69.36-.1.71-.2 1.12-.26-.1-.97-.26-1.74-.51-2.55zm.05-1.38a12.78 12.78 0 0 1 1.26 4.7c-1.2.2-2.32.52-3.48 1.03a30.1 30.1 0 0 0-1.11-2.26 23.96 23.96 0 0 0 3.33-3.47zm-13.38-11.98l-1.72-1.79 2.37.36 1.01-2.1.56 2.4 2.32.52-1.97 1.12.4 2.4-1.76-1.73-2.07.97zm-6.62 9.72c1.82-.25 5 .82 6.57 1.54-5.2-5.17-18.29-4.2-24.85-3.38 9.24-3.53 23.03-3.38 30.66 3.53-4.25 3.32-9.15 2.1-13.84.82.4-.88.9-1.72 1.46-2.5zm9.1-4.7a15.3 15.3 0 0 1 5.3 3.06c.15-.25.35-.51.5-.76a18.8 18.8 0 0 0-6.36-2.51c.2.05.4.15.55.2zm-2.43.71s1.16.05 3.13.61c-2.47-1.43-6.72-2.4-11.21-3.01 10.45-.31 14.8 1.89 17.12 3.84-.6 1.38-1.52 2.6-2.63 3.68a19.33 19.33 0 0 0-8.33-4.66c.55-.2 1.36-.36 1.92-.46z"/><path id="kx04c" d="M1498.77 5203.56l.96-.56.86.66-.25-1.07.86-.67-1.06-.1-.36-1.02-.4 1.02h-1.06l.8.72-.35 1.02zm16.37-4.96l1.36-.92 1.37 1.02-.4-1.64 1.36-.97-1.67-.15-.5-1.59-.67 1.59h-1.61l1.26 1.08-.5 1.58z"/></defs><g><g opacity=".6" transform="translate(-1475 -5190)"><g opacity=".6"><use fill="#e1e1e1" xlink:href="#kx04a"/></g><g opacity=".6"><use fill="#e1e1e1" xlink:href="#kx04b"/></g><g opacity=".6"><use fill="#e1e1e1" xlink:href="#kx04c"/></g></g></g></svg>