<svg xmlns="http://www.w3.org/2000/svg" xmlns:xlink="http://www.w3.org/1999/xlink" width="115" height="42" viewBox="0 0 115 42"><defs><path id="1kcoa" d="M1378.49 5119.9h.83v2.16c0 .37 0 .56.04.7.05.18.14.27.23.41.14.1.33.14.56.14.23 0 .41-.05.5-.14.14-.1.19-.23.23-.37.05-.14.05-.37.05-.69v-2.21h.83v2.12c0 .46 0 .83-.05 1.01a1.7 1.7 0 0 1-.23.5c-.14.15-.27.24-.46.33-.18.1-.46.14-.78.14-.37 0-.7-.05-.88-.14-.18-.1-.37-.18-.46-.32-.1-.14-.18-.28-.23-.46a2.1 2.1 0 0 1-.18-1.02z"/><path id="1kcob" d="M1384.25 5123.9v-4h.78l1.66 2.72v-2.72h.74v4h-.83l-1.61-2.62v2.63z"/><path id="1kcoc" d="M1390.01 5123.9v-4h.83v4z"/><path id="1kcod" d="M1394.8 5123.9l-1.42-4h.87l1.02 3 .97-3h.87l-1.43 4z"/><path id="1kcoe" d="M1399.7 5123.9v-4h2.99v.69h-2.17v.87h2.03v.7h-2.03v1.1h2.26v.7h-3.09z"/><path id="1kcof" d="M1406.1 5121.6h.6c.37 0 .65 0 .74-.04.1-.05.18-.1.23-.19.05-.09.1-.18.1-.32a.67.67 0 0 0-.1-.32.42.42 0 0 0-.32-.14h-1.25v1.01zm-.78 2.3v-4h1.7c.42 0 .74.04.93.09.18.1.37.18.46.37.14.18.18.41.18.64 0 .33-.1.56-.27.74-.19.19-.47.32-.79.37.19.1.32.23.42.32.09.14.27.33.46.65l.5.78h-.96l-.6-.83c-.23-.32-.37-.5-.42-.6-.09-.09-.14-.14-.23-.18-.1-.05-.23-.05-.41-.05h-.19v1.66h-.78z"/><path id="1kcog" d="M1411.5 5122.62l.78-.1c.05.28.14.47.28.6.13.14.32.19.6.19.27 0 .46-.05.6-.19.13-.09.18-.23.18-.36 0-.1-.05-.19-.1-.24a.7.7 0 0 0-.27-.18c-.1-.05-.32-.1-.64-.18-.42-.1-.74-.23-.93-.42-.23-.23-.37-.5-.37-.83 0-.18.05-.41.19-.55.14-.19.28-.32.5-.42.24-.09.47-.14.79-.14.5 0 .88.1 1.15.33.28.23.37.5.42.87l-.83.05c-.05-.19-.1-.37-.23-.46-.1-.1-.28-.14-.51-.14a.98.98 0 0 0-.55.14.25.25 0 0 0-.14.23c0 .1.04.18.14.23.09.1.37.18.73.28.42.09.7.18.88.27.18.1.32.23.46.42.1.18.14.37.14.64 0 .23-.05.46-.18.65-.14.18-.33.37-.56.46-.23.1-.5.14-.87.14-.51 0-.88-.14-1.16-.37-.32-.14-.46-.46-.5-.92z"/><path id="1kcoh" d="M1419.84 5122.34l-.55-1.48-.56 1.48zm1.52 1.57h-.92l-.37-.92h-1.61l-.32.92h-.88l1.57-4.01h.87z"/><path id="1kcoi" d="M1423.9 5123.9v-4h.83v3.32h2.03v.69z"/><path id="1kcoj" d="M1433.03 5123.9v-4h1.2l.73 2.76.74-2.76h1.2v4h-.74v-3.17l-.78 3.18h-.79l-.78-3.18v3.18z"/><path id="1kcok" d="M1439.71 5119.9h.83v2.16c0 .37 0 .56.05.7.04.18.14.27.23.41.14.1.32.14.55.14.23 0 .42-.05.5-.14.15-.1.2-.23.24-.37.04-.14.04-.37.04-.69v-2.21h.83v2.12c0 .46 0 .83-.04 1.01a1.7 1.7 0 0 1-.23.5c-.14.15-.28.24-.46.33-.19.1-.46.14-.79.14-.37 0-.69-.05-.87-.14-.19-.1-.37-.18-.46-.32a.88.88 0 0 1-.23-.46c-.05-.23-.1-.56-.1-1.02v-2.16z"/><path id="1kcol" d="M1445.75 5122.62l.78-.1c.05.28.14.47.28.6.14.14.32.19.6.19.28 0 .46-.05.6-.19.14-.09.18-.23.18-.36 0-.1-.04-.19-.09-.24a.7.7 0 0 0-.27-.18c-.1-.05-.33-.1-.65-.18-.41-.1-.74-.23-.92-.42-.23-.23-.37-.5-.37-.83 0-.18.05-.41.18-.55.14-.19.28-.32.51-.42.23-.09.46-.14.78-.14.51 0 .88.1 1.16.33.27.23.37.5.41.87l-.83.05c-.04-.19-.09-.37-.23-.46-.1-.1-.28-.14-.5-.14a.98.98 0 0 0-.56.14.25.25 0 0 0-.14.23c0 .1.05.18.14.23.1.1.37.18.74.28.41.09.69.18.87.27.19.1.33.23.47.42.09.18.13.37.13.64 0 .23-.04.46-.18.65-.14.18-.32.37-.55.46-.23.1-.51.14-.88.14-.5 0-.88-.14-1.15-.37-.32-.14-.46-.46-.5-.92z"/><path id="1kcom" d="M1451.84 5123.9v-4h.83v4z"/><path id="1kcon" d="M1458.15 5122.43l.79.23c-.14.46-.33.79-.6.97-.28.23-.65.32-1.06.32-.56 0-.97-.18-1.34-.55a2.2 2.2 0 0 1-.5-1.47c0-.7.18-1.2.5-1.57a1.8 1.8 0 0 1 1.38-.56c.51 0 .88.14 1.2.42.19.18.32.41.42.74l-.79.18a.91.91 0 0 0-.27-.5c-.14-.14-.33-.19-.56-.19-.27 0-.55.1-.73.32-.19.23-.28.56-.28 1.06 0 .51.1.88.28 1.11.18.23.41.32.69.32.23 0 .41-.04.55-.18.14-.14.28-.32.32-.65z"/><path id="1kcoo" d="M1466.36 5122.43v-.69h1.75v1.61c-.18.19-.41.33-.74.42a2.4 2.4 0 0 1-.96.18c-.42 0-.79-.09-1.11-.27a1.53 1.53 0 0 1-.7-.74c-.13-.32-.22-.7-.22-1.06 0-.42.09-.78.27-1.1.19-.33.42-.56.79-.74.27-.14.6-.19.97-.19.5 0 .87.1 1.15.32.27.23.46.51.55.88l-.83.14a.85.85 0 0 0-.32-.46c-.14-.1-.37-.19-.6-.19-.37 0-.65.1-.83.32-.23.24-.32.56-.32 1.02 0 .46.09.83.32 1.06.23.23.5.37.83.37.18 0 .32-.05.5-.1.2-.04.33-.13.47-.22v-.51h-.97z"/><path id="1kcop" d="M1471.57 5121.6h.6c.37 0 .64 0 .74-.04.09-.05.18-.1.23-.19.04-.09.09-.18.09-.32s-.05-.23-.1-.32a.42.42 0 0 0-.32-.14h-1.24zm-.83 2.3v-4h1.7c.42 0 .74.04.93.09.18.1.37.18.46.37.14.18.18.41.18.64 0 .33-.09.56-.27.74-.19.19-.47.32-.79.37.19.1.32.23.42.32.09.14.27.33.46.65l.5.78h-.96l-.6-.87c-.23-.33-.37-.51-.42-.6a.81.81 0 0 0-.23-.19c-.09-.04-.23-.04-.41-.04h-.19v1.66h-.78z"/><path id="1kcoq" d="M1477.84 5121.93c0 .46.1.78.32 1.01.23.23.46.37.79.37.32 0 .6-.14.78-.37.23-.23.32-.6.32-1.06 0-.46-.1-.78-.32-1.02-.19-.23-.46-.32-.78-.32-.33 0-.6.14-.83.32-.19.24-.28.6-.28 1.07zm-.83 0c0-.42.04-.74.18-1.02.1-.18.23-.37.37-.55.14-.19.32-.28.5-.37.24-.1.56-.14.89-.14.6 0 1.06.19 1.42.55.37.37.56.88.56 1.53 0 .64-.19 1.15-.51 1.52-.37.37-.83.55-1.43.55s-1.06-.18-1.43-.55a2.06 2.06 0 0 1-.55-1.52z"/><path id="1kcor" d="M1483.56 5119.9h.83v2.16c0 .37 0 .56.04.7.05.18.14.27.23.41.14.1.32.14.56.14.23 0 .41-.05.5-.14.14-.1.19-.23.23-.37.05-.14.05-.37.05-.69v-2.21h.83v2.12c0 .46 0 .83-.05 1.01a1.7 1.7 0 0 1-.23.5c-.14.15-.27.24-.46.33-.18.1-.46.14-.78.14-.37 0-.7-.05-.88-.14-.18-.1-.37-.18-.46-.32a.88.88 0 0 1-.23-.46c-.05-.23-.1-.56-.1-1.02v-2.16z"/><path id="1kcos" d="M1490.24 5120.59v1.15h.46c.32 0 .55 0 .65-.05.09-.04.18-.09.23-.18.04-.1.09-.18.09-.32a.52.52 0 0 0-.14-.37.74.74 0 0 0-.32-.19c-.1 0-.28-.04-.6-.04zm-.83 3.32v-4.01h1.3c.5 0 .82 0 .96.04.23.05.41.19.6.42.14.18.23.46.23.78 0 .23-.05.46-.14.65a1 1 0 0 1-.32.41c-.14.1-.28.14-.42.19-.18.04-.46.04-.83.04h-.5v1.52h-.88z"/><path id="1kcot" d="M1435.15 5091.77c.09-.13.27-.04.46-.04.37.04.18-.1.46.27.28.23.23-.09.6.14.37.33.37.23.83.28v.05l-.05.04h-.09l-.1.05h-.08a.9.9 0 0 0-.6-.05v-.09l-.19-.19-.04-.04H1436.07l-.1-.05-.13-.09-.19-.14-.13-.04-.14-.05h-.28v-.05h.05"/><path id="1kcou" d="M1445.7 5102.47l-.04-.14v-.14l.04-.09v-.05h-8.8l.97.88.09.05.1.04.08.05.1.05c.23.18.32.5.36.78v.1l-.04.04-.05.09-.04.14-.05.23-.05.37c0 .27.05.78-.23.92l-.04-.05c0 .74-.28 1.48-.7 2.08-.22.23-.27.5-.09.78-.13.1-.36.97-.36 1.15l.04.14.05.14v.1l.09.09.14.09h.27l.05-.05v-.04l-.05-.05-.04-.05-.05-.04.05-.1.14-.09.27-.14.14-.13.05-.14-.05-.14-.04-.05h.04l.05-.04.14-.05.13-.05.14-.13.14-.19.14-.23.14-.32h.18l.14-.05.1-.04.13-.1.14-.09.18-.09.28-.1.42-.13.13-.05.1-.04.09-.05.04-.04v-.1c-.09-.46.1-.27.56-.55a5.18 5.18 0 0 0 1.84-1.9l.05-.13.09-.14.14-.14.18-.13.23-.14.19-.05h.23l.09.05h.05l.09-.05.1-.09.17-.23.14-.19c.19-.32.14-.6.42-.92l.04-.04.05-.05.05-.05.04-.09.05-.04v-.1z"/><path id="1kcov" d="M1439.53 5093.06v.05l-.05.05h-.14l-.04-.19h.04l.05.05h.1z"/><path id="1kcow" d="M1438.84 5092.88c-.33.05-.65.05-.93.23-.04-.18-.18-.14-.32-.14l.05-.09v-.32c.5-.19.83.27 1.2.32z"/><path id="1kcox" d="M1449.72 5102.8c-4.94 14.8-24.95 15.16-29.83.13 5.25 13.42 24.75 13.32 29.83-.14z"/><path id="1kcoy" d="M1449.76 5093.34c-2.12-6.73-7.84-11.34-14.98-11.34-7.42 0-12.63 4.24-14.9 11.16a15.23 15.23 0 0 1 9.87-9.27c-.09.14-.14.28-.14.28-.09.14-.13.32-.27.46-.37.18-.56.74-.7 1.1l-.04.14v.19c-.14.5-.7.87-.92 1.33l-.14.28-.1.23-.04.23-.04.19v.18c.32.6.36 1.3.27 1.94l.05.04.04.05.1.14.04.14.05.18.05.18.04.19.05.18.04.1h.05c.37-.56-.37-1.48-.23-2.13h.04l.1-.04h.04c.05.97.6 1.84 1.06 2.67l-.04.05-.1.14v.14l.19.04-.14.28h.28l.09.04.1.05.04.05.1.04.13.14.18.14H1433.26c.09-.42.18-.83.41-1.2l-.04-.05H1433.2l-.1-.04-.04-.05h-.04c-.14.1-.28.56-.37.65-.1.32-.74.32-1.06.37-.28.04-.19 0-.37-.19l-.28-.5c-.5-1.11.6-2.82 1.9-2.22.68-.55.87.05 1.47-.23l.23-.04.18.04.1.14.04.23.05.28.27.32.14.23.23.14.1-.32-.05-.28-.1-.28-.18-.46-.04-.23.04-.18.19-.19c.32-.18.92-.5 1.06-.87l.09-.19.1-.18.13-.33.05-.13.04-.1.05-.04.04-.05.14-.09.14-.1.05-.08.04-.14v-.19h.46l.14-.04.19-.05.13-.14-.13-.04-.14-.05-.14-.05.05-.18-.1-.05-.09-.09v-.28l.1-.09h.36l.23.05.23.04h.23l.19-.09.14-.18c-.7-.28-1.06-.74-1.66-1.02l-.1.1-.04.09h-.19l-.09-.05-.09-.04-.1-.05-.13-.1c-.5-.4-.7 0-1.02-.32l-.04.19v.23l.04.1.05.04.1.04.04.05.05.05.09.09v.04H1435.98l-.1.1-.04.14V5085.55l-.05.05-.09.04h-.1l-.08-.04c-.47-.28-.14-.37-.65-.56-.37-.18-1.01-.04-1.29-.37l.05-.09.04-.09.14-.1.14-.13.18-.1.19-.13.18-.14.23-.1c.79-.4 1.8-.5 2.68-.36 0 0-.05-.05-.19-.1a15.3 15.3 0 0 1 12.54 10.01z"/><path id="1kcoz" d="M1407.85 5094.72h-2.44l.37.47v3.45l-.1.23-.13.19c-.23.27-.65.37-1.02.37h-.23l-.23-.05-.23-.05-.18-.13-.1-.14-.09-.19-.09-.23v-3.45l.37-.47h-2.44l.37.47c.23 3.18-1.02 5.44 2.9 5.48 3.97-.04 2.67-2.26 2.9-5.48z"/><path id="1kcoA" d="M1416.38 5094.72h-2.07l.37.47v2.95l-2.95-3.42h-1.9l.38.47v4.93l-.37.41h2.07l-.37-.41v-2.95l3.18 3.36h1.3v-5.34z"/><path id="1kcoB" d="M1421.13 5100.53l-.32-.41v-4.93l.32-.47h-2.44l.37.47v4.93l-.37.41z"/><path id="1kcoC" d="M1429.3 5094.72h-2.08l.37.47-1.48 3.22-1.38-3.22.37-.47h-2.5l2.73 5.81h1.24z"/><path id="1kcoD" d="M1436.25 5100.53v-1.56l-.46.36h-2.95v-1.1h1.85l.46.37v-1.9l-.46.38h-1.85v-1.11h2.95l.46.37v-1.62h-5.48l.37.47v4.93l-.37.41z"/><path id="1kcoE" d="M1440.54 5097.4v-1.43h1.48l.13.05.14.04c.23.14.33.32.33.6-.1.92-1.48.78-2.08.74zm4.06 3.13l-1.57-2.3c.78-.32 1.34-.88 1.34-1.75v-.37l-.1-.33-.13-.32-.23-.27-.33-.19-.36-.18-.47-.1-.55-.04h-3.64l.37.46v4.93l-.37.42h2.44l-.37-.42v-1.61h.74l1.1 1.61-.36.42h2.49z"/><path id="1kcoF" d="M1451.97 5098.87c-.04-1.29-1.38-1.66-2.4-1.93-.36-.05-1.65-.51-.91-.97.64-.37 2.4.23 3 .55v-1.98l-.47.46c-1.2-.46-2.86-.64-3.96.14-.33.28-.6.7-.56 1.15-.09 1.1.93 1.66 1.85 1.94l.32.1.32.04.28.04.23.1.18.04.14.14.14.14.05.18c0 .32-.46.46-.74.46a5.75 5.75 0 0 1-2.72-.87v2.16l.46-.5c1.52.55 4.75 1.01 4.8-1.39z"/><path id="1kcoG" d="M1455.94 5098.46l.97-2.08.97 2.08zm4.75 2.07l-2.86-5.8h-1.98l.18.46-2.58 5.39h2.12l-.37-.42.32-.64h2.77l.28.64-.37.42h2.49z"/><path id="1kcoH" d="M1467.6 5100.53v-1.56l-.46.36h-2.81v-4.14l.37-.47h-2.44l.36.47v4.93l-.36.41z"/><path id="1kcoI" d="M1467.1 5095.23l-.05-.04-.1-.05h-.27l-.14.1-.09.13-.04.18.04.19.1.14.13.09.14.05.1-.05h.04l.1-.05.04-.04v-.1l-.1.05-.09.05h-.14l-.13-.05-.1-.05-.09-.23c.1-.36.37-.46.65-.23z"/><path id="1kcoJ" d="M1466.04 5095.55c.04-.96 1.43-.96 1.47 0-.04.97-1.43.97-1.47 0zm-.1 0c0 1.06 1.57 1.11 1.62 0-.05-1.1-1.62-1.01-1.62 0z"/></defs><g><g opacity=".6" transform="translate(-1378 -5082)"><g opacity=".6"><g opacity=".6"><g opacity=".6"><use fill="#e1e1e1" xlink:href="#1kcoa"/></g><g opacity=".6"><use fill="#e1e1e1" xlink:href="#1kcob"/></g><g opacity=".6"><use fill="#e1e1e1" xlink:href="#1kcoc"/></g><g opacity=".6"><use fill="#e1e1e1" xlink:href="#1kcod"/></g><g opacity=".6"><use fill="#e1e1e1" xlink:href="#1kcoe"/></g><g opacity=".6"><use fill="#e1e1e1" xlink:href="#1kcof"/></g><g opacity=".6"><use fill="#e1e1e1" xlink:href="#1kcog"/></g><g opacity=".6"><use fill="#e1e1e1" xlink:href="#1kcoh"/></g><g opacity=".6"><use fill="#e1e1e1" xlink:href="#1kcoi"/></g></g><g opacity=".6"><g opacity=".6"><use fill="#e1e1e1" xlink:href="#1kcoj"/></g><g opacity=".6"><use fill="#e1e1e1" xlink:href="#1kcok"/></g><g opacity=".6"><use fill="#e1e1e1" xlink:href="#1kcol"/></g><g opacity=".6"><use fill="#e1e1e1" xlink:href="#1kcom"/></g><g opacity=".6"><use fill="#e1e1e1" xlink:href="#1kcon"/></g></g><g opacity=".6"><g opacity=".6"><use fill="#e1e1e1" xlink:href="#1kcoo"/></g><g opacity=".6"><use fill="#e1e1e1" xlink:href="#1kcop"/></g><g opacity=".6"><use fill="#e1e1e1" xlink:href="#1kcoq"/></g><g opacity=".6"><use fill="#e1e1e1" xlink:href="#1kcor"/></g><g opacity=".6"><use fill="#e1e1e1" xlink:href="#1kcos"/></g></g></g><g opacity=".6"><g opacity=".6"><use fill="#e1e1e1" xlink:href="#1kcot"/></g><g opacity=".6"><use fill="#e1e1e1" xlink:href="#1kcou"/></g><g opacity=".6"><use fill="#e1e1e1" xlink:href="#1kcov"/></g><g opacity=".6"><use fill="#e1e1e1" xlink:href="#1kcow"/></g><g opacity=".6"><use fill="#e1e1e1" xlink:href="#1kcox"/></g><g opacity=".6"><use fill="#e1e1e1" xlink:href="#1kcoy"/></g><g opacity=".6"><use fill="#e1e1e1" xlink:href="#1kcoz"/></g><g opacity=".6"><use fill="#e1e1e1" xlink:href="#1kcoA"/></g><g opacity=".6"><use fill="#e1e1e1" xlink:href="#1kcoB"/></g><g opacity=".6"><use fill="#e1e1e1" xlink:href="#1kcoC"/></g><g opacity=".6"><use fill="#e1e1e1" xlink:href="#1kcoD"/></g><g opacity=".6"><use fill="#e1e1e1" xlink:href="#1kcoE"/></g><g opacity=".6"><use fill="#e1e1e1" xlink:href="#1kcoF"/></g><g opacity=".6"><use fill="#e1e1e1" xlink:href="#1kcoG"/></g><g opacity=".6"><use fill="#e1e1e1" xlink:href="#1kcoH"/></g><g opacity=".6"><use fill="#e1e1e1" xlink:href="#1kcoI"/></g><g opacity=".6"><use fill="#e1e1e1" xlink:href="#1kcoJ"/></g></g></g></g></svg>