<svg xmlns="http://www.w3.org/2000/svg" xmlns:xlink="http://www.w3.org/1999/xlink" width="30" height="32" viewBox="0 0 30 32"><defs><path id="42cla" d="M1426.49 5205.79h28.99v-11.1l-5.96 5.95h-1.92l3.78-3.77-2.89-2.87-3.79 3.78-3.76-3.75-6.58 6.58h-1.79l3.64-3.63-2.86-2.85-3.75 3.72-3.1-3.08z"/><path id="42clb" d="M1445.74 5220.18c-3.39-1.85-5.27-2.71-9.56-2.71h-.77c.1.26.22.5.33.76.64 1.35 1.4 2.55 2.28 3.55a11.15 11.15 0 0 0 3.65 2.8 20 20 0 0 0 2.71 1 15.35 15.35 0 0 0 6.22-3.21c-1.1-.2-2.42-.85-4.86-2.19z"/><path id="42clc" d="M1429.69 5220.67a15.15 15.15 0 0 0 11.29 5.33c-3.98-1.85-6.11-5.5-7.21-8.29a6.32 6.32 0 0 0-4.08 2.96z"/><path id="42cld" d="M1434.38 5214.25c.08.38.22.98.46 1.7.25-.02.53-.04.8-.04h.54c4.76 0 6.92 1.05 10.33 2.9 2.61 1.43 3.94 2.06 4.83 2.06.1 0 .2 0 .3-.02l.58-.06a12.8 12.8 0 0 0 3.27-6.54z"/><path id="42cle" d="M1429.48 5218.37a8.15 8.15 0 0 1 3.77-2.15c-.3-.93-.44-1.63-.5-1.98h-6.26c.21 1.62.97 3.42 2.16 5.1.23-.3.5-.63.83-.97z"/><path id="42clf" d="M1432.71 5206.89h-2.17l-1.15 2.53h-.7v-2.53h-2.2v6.17h2.2v-2.47h.64l1.18 2.47h2.2l-1.5-3.05z"/><path id="42clg" d="M1433.3 5213.06v-6.17h2.23v6.17z"/><path id="42clh" d="M1441.36 5206.89h-5.04v6.17h2.14v-4.94h1.66v4.94h2.06v-5.34a.81.81 0 0 0-.82-.83z"/><path id="42cli" d="M1449 5209.35h-2.14v2.48h-1.67v-3.7h3.75v-1.23h-5.8v5.34c0 .46.37.83.83.83h5.03v-3.72z"/><path id="42clj" d="M1455.48 5208.56v-1.72h-5.69v2.89c0 .46.38.83.84.83h2.78v1.25h-3.62v1.24h5.69v-2.88a.83.83 0 0 0-.84-.84H1451.86v-1.25h1.53v.48z"/><path id="42clk" d="M1449.24 5202.57h-1.89v2.32h.8v-1.86h.63v1.85h.77v-2c.01-.17-.14-.3-.31-.3z"/><path id="42cll" d="M1443.78 5202.57h-2.94v2.32h.57v-1.86h.74v1.85h.58v-1.85h.73v1.85h.6v-2c0-.17-.13-.3-.28-.3z"/><path id="42clm" d="M1429.22 5203.5h-.95v-.47h1.23v-.46h-1.92v1.08c0 .17.12.31.28.31h.95v.47h-1.23v.46h1.93v-1.08c0-.17-.13-.3-.29-.3z"/><path id="42cln" d="M1430.79 5203.88v-.85h.74v.85zm1.06-1.3h-1.64v2.31h.58v-.64h.74v.63h.58v-2c.01-.17-.11-.3-.26-.3z"/><path id="42clo" d="M1438.71 5203.88v-.85h.74v.85zm1.07-1.3h-1.64v2.31h.57v-.64h.74v.63h.59v-2c0-.17-.11-.3-.26-.3z"/><path id="42clp" d="M1434.1 5204.42h-.63v-1.39h1.32v-.46h-1.93v2c0 .17.13.31.28.31h1.69v-.46z"/><path id="42clq" d="M1436.06 5203.03h.74v.62h-.74zm1.34 1v-1.15c0-.17-.12-.3-.27-.3h-1.64v2.31h.57v-.85h.42l.35.85h.56l-.34-.85h.35z"/><path id="42clr" d="M1445.43 5204.46v-.5h1.33v-.4h-1.33v-.52h1.33v-.47h-1.86v2.01c0 .17.14.31.31.31h1.56v-.43z"/><path id="42cls" d="M1451.81 5202.57h-1.9v.46h.68v1.85h.6v-1.85h.62z"/><path id="42clt" d="M1454.1 5202.57h-1.32a.32.32 0 0 0-.32.32v1.68c0 .17.14.32.32.32h1.32c.17 0 .32-.14.32-.32v-1.69a.32.32 0 0 0-.32-.3zm-.32.48v1.35h-.69v-1.35"/></defs><g><g opacity=".6" transform="translate(-1426 -5194)"><g opacity=".6"><use fill="#e1e1e1" xlink:href="#42cla"/></g><g opacity=".6"><g opacity=".6"><use fill="#e1e1e1" xlink:href="#42clb"/></g><g opacity=".6"><use fill="#e1e1e1" xlink:href="#42clc"/></g><g opacity=".6"><use fill="#e1e1e1" xlink:href="#42cld"/></g><g opacity=".6"><use fill="#e1e1e1" xlink:href="#42cle"/></g></g><g opacity=".6"><g opacity=".6"><use fill="#e1e1e1" xlink:href="#42clf"/></g><g opacity=".6"><use fill="#e1e1e1" xlink:href="#42clg"/></g><g opacity=".6"><use fill="#e1e1e1" xlink:href="#42clh"/></g><g opacity=".6"><use fill="#e1e1e1" xlink:href="#42cli"/></g><g opacity=".6"><use fill="#e1e1e1" xlink:href="#42clj"/></g></g><g opacity=".6"><g opacity=".6"><use fill="#e1e1e1" xlink:href="#42clk"/></g><g opacity=".6"><use fill="#e1e1e1" xlink:href="#42cll"/></g><g opacity=".6"><use fill="#e1e1e1" xlink:href="#42clm"/></g><g opacity=".6"><use fill="#e1e1e1" xlink:href="#42cln"/></g><g opacity=".6"><use fill="#e1e1e1" xlink:href="#42clo"/></g><g opacity=".6"><use fill="#e1e1e1" xlink:href="#42clp"/></g><g opacity=".6"><use fill="#e1e1e1" xlink:href="#42clq"/></g><g opacity=".6"><use fill="#e1e1e1" xlink:href="#42clr"/></g><g opacity=".6"><use fill="#e1e1e1" xlink:href="#42cls"/></g><g opacity=".6"><use fill="#e1e1e1" xlink:href="#42clt"/></g></g></g></g></svg>