<svg xmlns="http://www.w3.org/2000/svg" xmlns:xlink="http://www.w3.org/1999/xlink" width="118" height="16" viewBox="0 0 118 16"><defs><path id="h4w2a" d="M1450.97 5151.2a1.14 1.14 0 0 1-.34-.89c0-.35.13-.62.34-.9.21-.2.48-.34.9-.34.34 0 .62.14.9.34.27.28.34.55.34.9 0 .34-.14.62-.34.9-.28.27-.56.34-.9.34-.35 0-.62-.14-.9-.34zm-72.48 8v-3.24h3.24v3.25zm8.41 0v-3.24h3.24v3.25zm9.66 0v-3.24h3.24v3.25zm9.72 0v-3.24h3.24v3.25zm66.9 0v-3.24h3.24v3.25zm9.72 0v-3.24h3.18v3.25zm9.66 0v-3.24h3.24v3.25zm-111.45 5.39v-.76h.55c.62 0 .96-.14 1.24-.35.2-.2.35-.9.35-1.93v-11.59h-.49c-.76 0-1.45.21-2 .62-.96.7-1.45 2-1.58 4h-.7l.14-5.37h11.45l.07 5.38h-.69c-.27-2.28-.96-3.66-2.07-4.21a4.2 4.2 0 0 0-1.65-.34h-.35v11.51c0 .83.07 1.38.14 1.59.14.48.62.69 1.45.69h.48v.76zm74.14 0v-.7h.34c.42 0 .76-.06.9-.27.2-.2.27-.76.27-1.58v-10.35c0-.83-.06-1.38-.27-1.59-.14-.2-.48-.27-.9-.27h-.27v-.7l3.45-.13v13.04c0 .82.06 1.38.27 1.58.14.2.48.28.9.28h.34v.69zm-34.62.07v-.76h.2c.62 0 1.04-.14 1.24-.42.21-.2.35-.82.35-1.86v-11.04l-4 14.08h-.69l-4.14-14.08v10.14c0 1.04.07 1.66.14 1.94.2.82.76 1.17 1.58 1.17h.28v.76h-4.83v-.76h.35c.55 0 .96-.2 1.24-.7.2-.4.28-1.16.28-2.4v-8.97c0-.55 0-.9-.07-1.04-.07-.34-.28-.62-.62-.68-.21-.08-.42-.08-.83-.08h-.41v-.75h4.48l3.3 11.3 3.46-11.3h4.55v.75h-.28c-.62 0-1.03.14-1.24.35-.2.2-.34.9-.34 1.93v9.38c0 .83.07 1.38.13 1.59.14.48.62.69 1.45.69h.28v.76zm28.82 0v-.7h.35c.41 0 .76-.06.9-.27.2-.2.27-.76.27-1.59v-5.51c0-.83-.07-1.38-.27-1.59-.14-.2-.49-.28-.9-.28h-.28v-.69l3.45-.2v8.27c0 .83.07 1.38.28 1.6.14.2.48.26.9.26h.34v.7zm-7.44-8.9c-.49.83-.7 1.93-.7 3.45 0 1.51.14 2.62.56 3.45.41.9 1.03 1.38 1.93 1.38 1.52 0 2.27-1.6 2.27-4.83 0-3.1-.75-4.62-2.13-4.7-.83 0-1.45.42-1.93 1.25zm.07 8.62c-.07-.14-.35-.28-.76-.62-.14-.14-.28-.2-.42-.2-.2 0-.48.34-.96 1.1h-.76c.07-.14.07-.28.14-.42.07-.2.13-.82.13-1.86v-10.62c0-.83-.06-1.38-.27-1.59-.14-.2-.48-.27-.9-.27h-.2v-.76l3.3-.14h.07v6.48a2.83 2.83 0 0 1 2.76-1.65c1.1 0 2.07.41 2.76 1.17a6.12 6.12 0 0 1 1.38 4.14c0 1.51-.34 2.76-1.03 3.86a3.8 3.8 0 0 1-3.31 1.86c-.7 0-1.31-.2-1.93-.48zm-9.73-9.86c-.83 0-1.45.48-1.86 1.38a8.97 8.97 0 0 0-.55 3.45c0 3.24.82 4.9 2.48 4.9 1.66 0 2.48-1.66 2.48-4.9 0-1.6-.2-2.7-.55-3.52-.38-.9-.95-1.32-1.8-1.32h-.2zm-3.45 8.69a6.48 6.48 0 0 1-1.17-3.93c0-1.6.41-2.9 1.17-3.93a4.32 4.32 0 0 1 3.59-1.73c1.38 0 2.55.55 3.45 1.73a6.2 6.2 0 0 1 1.17 3.93c0 1.58-.41 2.9-1.17 3.93a4.2 4.2 0 0 1-3.52 1.72 4.2 4.2 0 0 1-3.52-1.72zm34.9-6.76c-.14.55-.2 1.24-.2 2h4.2c0-.97-.14-1.8-.35-2.49-.34-1.03-.96-1.51-1.72-1.51-.9 0-1.59.62-1.93 2zm-.9 7.31c-.96-1.04-1.45-2.55-1.45-4.48 0-1.8.49-3.24 1.45-4.35a3.43 3.43 0 0 1 2.76-1.3c1.59 0 2.76.82 3.59 2.4.41.9.69 1.93.62 3.25h-6.35c0 1.51.21 2.62.49 3.3.48 1.04 1.17 1.52 2.2 1.52.83 0 1.45-.34 2-.96.28-.35.62-.83.9-1.45l.7.35c-.98 2-2.29 2.96-3.94 2.96-1.17 0-2.2-.41-2.97-1.24z"/></defs><g><g opacity=".6" transform="translate(-1378 -5149)"><use fill="#e1e1e1" xlink:href="#h4w2a"/></g></g></svg>